<svg version="1.1" xmlns="http://www.w3.org/2000/svg" xmlns:xlink="http://www.w3.org/1999/xlink" x="0px" y="0px" width="84px" height="84px" viewBox="0 0 84 84" enable-background="new 0 0 84 84" xml:space="preserve"><path fill="#FFFFFF" d="M42,0C18.8,0,0,18.8,0,42s18.8,42,42,42s42-18.8,42-42S65.2,0,42,0z M59.1,33.2c0,0.4,0,0.7,0,1.1 c0,11.6-8.8,25.1-25.1,25.1c-5,0-9.7-1.4-13.6-3.9c0.7,0.1,1.4,0.1,2.1,0.1c4.1,0,8-1.4,10.9-3.8c-3.9-0.1-7.1-2.7-8.3-6.2	c0.6,0.1,1.1,0.1,1.7,0.1c0.8,0,1.5-0.1,2.4-0.3c-4.1-0.8-7.1-4.3-7.1-8.7v-0.1c1.1,0.7,2.5,1.1,4.1,1.1c-2.4-1.5-3.9-4.3-3.9-7.3	c0-1.7,0.4-3.1,1.3-4.5c4.3,5.3,10.8,8.8,18.2,9.2c-0.1-0.7-0.3-1.3-0.3-2c0-4.9,3.9-8.8,8.8-8.8c2.5,0,4.8,1.1,6.4,2.8	c2-0.4,3.9-1.1,5.6-2.1c-0.7,2.1-2.1,3.8-3.9,4.9c1.8-0.3,3.5-0.7,5-1.4C62.3,30.4,60.8,32.1,59.1,33.2z"/></svg>