<?xml version="1.0" encoding="utf-8"?>
<!-- Generator: Adobe Illustrator 19.0.0, SVG Export Plug-In . SVG Version: 6.00 Build 0)  -->
<svg version="1.1" id="Layer_1" xmlns="http://www.w3.org/2000/svg" xmlns:xlink="http://www.w3.org/1999/xlink" x="0px" y="0px"
	 viewBox="0 0 747.3 120.5" style="enable-background:new 0 0 747.3 120.5;" xml:space="preserve">
<style type="text/css">
	.st0{fill:#FFFFFF;}
</style>
<path id="XMLID_1_" class="st0" d="M43.2,107H12l36.5-50.1L14.7,10.7h34.4l18.8,29.9l19.5-29.9h30.7L83.8,56.3l36,50.7H85.6
	L64.6,72.7L43.2,107z M151.9,10.7L173,51.1l21.7-40.4h27.5l-37.6,62.3v34h-26.9V71.7L121,10.7H151.9z M226.2,85.7l48-56.3h-45.3
	V10.9h78.4v20.5l-49.6,56.8h50.7V107h-82.2V85.7z M337.6,18v34.7H376V18h11.2v80.9H376V62.3h-38.4v36.5h-11.2V18H337.6z M400.5,18
	h50.7v9.5h-39.5v25.2h37.6v9.4h-37.6V89h40.4v9.9h-51.6V18z M491.9,18h12l32.7,80.9h-12.2l-8.7-21.1h-37.5l-8.7,21.1h-11.5L491.9,18
	z M481.7,68.7h30.6l-14.9-39.6L481.7,68.7z M544.8,18h11.1v70.9h37.6v10h-48.7V18z M623.1,98.8V27.5H596V18h65.3v9.5h-27.1v71.3
	H623.1z M680.1,18v34.7h38.4V18h11.2v80.9h-11.2V62.3h-38.4v36.5h-11.2V18H680.1z"/>
</svg>
