<svg version="1.1" xmlns="http://www.w3.org/2000/svg" xmlns:xlink="http://www.w3.org/1999/xlink" x="0px" y="0px" width="144px" height="32px" viewBox="0 0 144 32" enable-background="new 0 0 144 32" xml:space="preserve"><path fill="#FFFFFF" d="M17.6549988,2.207c-0.6620026,0-1.1029968-0.441-1.1029968-1.103S16.9929962,0,17.6549988,0 s1.1029968,0.441,1.1029968,1.103S18.3170013,2.207,17.6549988,2.207L17.6549988,2.207z M14.3440018,2.207 c-0.6620026,0-1.1029968-0.441-1.1029968-1.103S13.6819992,0,14.3440018,0s1.1029968,0.441,1.1029968,1.103 S15.0059967,2.207,14.3440018,2.207L14.3440018,2.207z M11.0339966,2.207c-0.6620026,0-1.1029968-0.441-1.1029968-1.103 S10.3720016,0,11.0339966,0c0.6620026,0,1.1029968,0.441,1.1029968,1.103S11.6959991,2.207,11.0339966,2.207L11.0339966,2.207z  M7.723999,2.207c-0.6620026,0-1.1029968-0.441-1.1029968-1.103S7.0619965,0,7.723999,0s1.1029968,0.441,1.1029968,1.103 S8.3860016,2.207,7.723999,2.207L7.723999,2.207z M4.4129944,2.207c-0.6620026,0-1.1029968-0.441-1.1029968-1.103 S3.7509995,0,4.4129944,0s1.1029968,0.441,1.1029968,1.103S5.0749969,2.207,4.4129944,2.207L4.4129944,2.207z M1.1029968,2.207 C0.4409943,2.207,0,1.766,0,1.104S0.4409943,0,1.1029968,0s1.1029968,0.441,1.1029968,1.103S1.7649994,2.207,1.1029968,2.207 L1.1029968,2.207z M1.1029968,5.5170002C0.4409943,5.5170002,0,5.0760002,0,4.414s0.4410019-1.1030002,1.1029968-1.1030002 c0.6620026,0,1.1029968,0.441,1.1029968,1.1030002S1.7649994,5.5170002,1.1029968,5.5170002L1.1029968,5.5170002z  M1.1029968,8.8280001C0.4409943,8.8280001,0,8.3870001,0,7.7249999s0.4410019-1.1030002,1.1029968-1.1030002 c0.6620026,0,1.1029968,0.441,1.1029968,1.1030002S1.7649994,8.8280001,1.1029968,8.8280001L1.1029968,8.8280001z  M1.1029968,12.1379995C0.4409943,12.1379995,0,11.6969995,0,11.0349998s0.4410019-1.1030006,1.1029968-1.1030006 c0.6620026,0,1.1029968,0.4410009,1.1029968,1.1030006S1.7649994,12.1379995,1.1029968,12.1379995L1.1029968,12.1379995z  M1.1029968,15.448C0.4409943,15.448,0,15.007,0,14.3450003s0.4410019-1.1029997,1.1029968-1.1029997 c0.6620026,0,1.1029968,0.441,1.1029968,1.1029997S1.7649994,15.448,1.1029968,15.448L1.1029968,15.448z M1.1029968,18.7590008 C0.4409943,18.7590008,0,18.3180008,0,17.656002c0-0.6620007,0.4410019-1.1030006,1.1029968-1.1030006 c0.6620026,0,1.1029968,0.441,1.1029968,1.1030006C2.2060013,18.3180008,1.7649994,18.7590008,1.1029968,18.7590008 L1.1029968,18.7590008z M1.1029968,22.0690002C0.4409943,22.0690002,0,21.6280003,0,20.9659996 s0.4410019-1.1030006,1.1029968-1.1030006c0.6620026,0,1.1029968,0.441,1.1029968,1.1030006 C2.2060013,21.6280003,1.7649994,22.0690002,1.1029968,22.0690002L1.1029968,22.0690002z M1.1029968,25.3789997 C0.4409943,25.3789997,0,24.9379997,0,24.2759991s0.4410019-1.1030006,1.1029968-1.1030006 c0.6620026,0,1.1029968,0.441,1.1029968,1.1030006C2.2060013,24.9379997,1.7649994,25.3789997,1.1029968,25.3789997 L1.1029968,25.3789997z M1.1029968,28.6900005C0.4409943,28.6900005,0,28.2490005,0,27.5869999 s0.4410019-1.1030006,1.1029968-1.1030006c0.6620026,0,1.1029968,0.441,1.1029968,1.1030006 C2.2060013,28.2490005,1.7649994,28.6900005,1.1029968,28.6900005L1.1029968,28.6900005z M1.1029968,32 C0.4409943,32,0,31.559,0,30.8969994s0.4410019-1.1030006,1.1029968-1.1030006c0.6620026,0,1.1029968,0.441,1.1029968,1.1030006 C2.2060013,31.559,1.7649994,32,1.1029968,32L1.1029968,32z M4.4129944,32c-0.6620026,0-1.1029968-0.441-1.1029968-1.1030006 s0.4410019-1.1030006,1.1029968-1.1030006s1.1029968,0.441,1.1029968,1.1030006C5.5159988,31.559,5.0749969,32,4.4129944,32 L4.4129944,32z M7.723999,32c-0.6620026,0-1.1029968-0.441-1.1029968-1.1030006s0.4410019-1.1030006,1.1029968-1.1030006 c0.6620026,0,1.1029968,0.441,1.1029968,1.1030006S8.3860016,32,7.723999,32L7.723999,32z M7.723999,28.6900005 c-0.6620026,0-1.1029968-0.441-1.1029968-1.1030006s0.4410019-1.1030006,1.1029968-1.1030006 c0.6620026,0,1.1029968,0.441,1.1029968,1.1030006S8.3860016,28.6900005,7.723999,28.6900005L7.723999,28.6900005z  M17.6549988,7.724c-0.6620026,0-1.1029968-0.441-1.1029968-1.1030002s0.4410019-1.1030002,1.1029968-1.1030002 s1.1029968,0.441,1.1029968,1.1030002S18.3170013,7.724,17.6549988,7.724L17.6549988,7.724z M14.3440018,7.724 c-0.6620026,0-1.1029968-0.441-1.1029968-1.1030002s0.4410019-1.1030002,1.1029968-1.1030002s1.1029968,0.441,1.1029968,1.1030002 S15.0059967,7.724,14.3440018,7.724L14.3440018,7.724z M11.0339966,7.724c-0.6620026,0-1.1029968-0.441-1.1029968-1.1030002 s0.4410019-1.1030002,1.1029968-1.1030002s1.1029968,0.441,1.1029968,1.1030002S11.6959991,7.724,11.0339966,7.724L11.0339966,7.724 z M7.723999,7.724c-0.6620026,0-1.1029968-0.441-1.1029968-1.1030002S7.0620041,5.5179996,7.723999,5.5179996 c0.6620026,0,1.1029968,0.441,1.1029968,1.1030002S8.3860016,7.724,7.723999,7.724L7.723999,7.724z M7.723999,11.0340004 c-0.6620026,0-1.1029968-0.441-1.1029968-1.1030006c0-0.6619997,0.4410019-1.1029997,1.1029968-1.1029997 c0.6620026,0,1.1029968,0.441,1.1029968,1.1029997C8.8269958,10.5930004,8.3860016,11.0340004,7.723999,11.0340004 L7.723999,11.0340004z M7.723999,14.3450003c-0.6620026,0-1.1029968-0.441-1.1029968-1.1029997 s0.4410019-1.1029997,1.1029968-1.1029997c0.6620026,0,1.1029968,0.441,1.1029968,1.1029997 S8.3860016,14.3450003,7.723999,14.3450003L7.723999,14.3450003z M11.0339966,14.3450003 c-0.6620026,0-1.1029968-0.441-1.1029968-1.1029997s0.4410019-1.1029997,1.1029968-1.1029997s1.1029968,0.441,1.1029968,1.1029997 S11.6959991,14.3450003,11.0339966,14.3450003L11.0339966,14.3450003z M14.3440018,14.3450003 c-0.6620026,0-1.1029968-0.441-1.1029968-1.1029997s0.4410019-1.1029997,1.1029968-1.1029997s1.1029968,0.441,1.1029968,1.1029997 S15.0059967,14.3450003,14.3440018,14.3450003L14.3440018,14.3450003z M17.6549988,14.3450003 c-0.6620026,0-1.1029968-0.441-1.1029968-1.1029997s0.4410019-1.1029997,1.1029968-1.1029997s1.1029968,0.441,1.1029968,1.1029997 S18.3170013,14.3450003,17.6549988,14.3450003L17.6549988,14.3450003z M17.6549988,17.6549988 c-0.6620026,0-1.1029968-0.4409981-1.1029968-1.1029987c0-0.6619997,0.4410019-1.1029997,1.1029968-1.1029997 s1.1029968,0.441,1.1029968,1.1029997C18.7579956,17.2140007,18.3170013,17.6549988,17.6549988,17.6549988L17.6549988,17.6549988z  M17.6549988,20.9659996c-0.6620026,0-1.1029968-0.441-1.1029968-1.1030006s0.4410019-1.1030006,1.1029968-1.1030006 s1.1029968,0.441,1.1029968,1.1030006S18.3170013,20.9659996,17.6549988,20.9659996L17.6549988,20.9659996z M14.3440018,20.9659996 c-0.6620026,0-1.1029968-0.441-1.1029968-1.1030006s0.4410019-1.1030006,1.1029968-1.1030006s1.1029968,0.441,1.1029968,1.1030006 S15.0059967,20.9659996,14.3440018,20.9659996L14.3440018,20.9659996z M11.0339966,20.9659996 c-0.6620026,0-1.1029968-0.441-1.1029968-1.1030006s0.4410019-1.1030006,1.1029968-1.1030006s1.1029968,0.441,1.1029968,1.1030006 C12.137001,20.5249996,11.6959991,20.9659996,11.0339966,20.9659996L11.0339966,20.9659996z M7.723999,20.9659996 c-0.6620026,0-1.1029968-0.441-1.1029968-1.1030006s0.4410019-1.1030006,1.1029968-1.1030006 c0.6620026,0,1.1029968,0.441,1.1029968,1.1030006S8.3860016,20.9659996,7.723999,20.9659996L7.723999,20.9659996z"/><path fill="#FFFFFF" d="M52.7449989,18.3169994c-1.2140007,0.993-1.9860001,1.5450001-2.3170013,1.8759995 c-0.8829994,0.6620007-1.1030006,0.7719994-2.2070007,0.7719994c-3.0900002,0-5.4070015-1.7660007-5.4070015-4.9659996v-2.6479998 c0-0.6619997,0.1100006-0.8830004,0.5519981-1.3240004c0.5519981-0.441,1.7659988-1.5450001,2.3170013-1.8760004 c0.8829994-0.6619997,1.1030006-0.7720003,2.0970001-0.7720003c1.3240013,0,2.2070007,0.2210007,3.0900002,0.6620007 c1.4339981,0.7720003,2.538002,2.0970001,2.538002,4.1929998v2.3170004 C53.4069977,17.6549988,53.2969971,17.7659988,52.7449989,18.3169994L52.7449989,18.3169994z M52.192997,14.7860003 c0-2.6479998-1.7659988-4.1929998-4.3030014-4.1929998c-0.5519981,0-0.8829994,0.1099997-1.2140007,0.441 c-0.6619987,0.552-2.0970001,1.7659998-2.3170013,1.8760004c-0.2210007,0.2209997-0.3310013,0.441-0.3310013,0.993v1.8760004 c0,1.1029987,0.3310013,2.2069988,0.993,2.9790001c0.7719994,0.7719994,1.8759995,1.3239994,3.2000008,1.3239994 c0.7719994,0,0.8829994,0,1.5449982-0.552c0.7719994-0.552,1.1030006-0.8829994,1.6549988-1.3239994 c0.6619987-0.552,0.6619987-0.6619987,0.6619987-1.434v-1.9860001C52.0829964,14.7860003,52.192997,14.7860003,52.192997,14.7860003 z M40.1650009,6.6209998h-8.0550003v5.9590001h6.9520035c0.2210007,0,0.2210007,0.1099997,0.2210007,0.2209997v0.552 c0,0.2209997,0,0.3310003-0.2210007,0.3310003h-6.9520035v6.9519997c0,0.2210007-0.1100006,0.2210007-0.2210007,0.2210007 h-0.9929962c-0.1100006,0-0.2210007,0-0.2210007-0.2210007V5.7379999c0-0.2209997,0.1100006-0.3310003,0.3310013-0.3310003 h9.1590042c0.2210007,0,0.2210007,0.1100001,0.2210007,0.2210002V6.29 C40.3860016,6.5100002,40.3860016,6.6209998,40.1650009,6.6209998L40.1650009,6.6209998z M84.6349945,14.2340002 c0.6620026,0.2209997,1.3240051,0.3310003,1.8760071,0.552c2.2070007,0.6619997,2.9789963,1.434001,2.9789963,2.8690004 c0,2.2070007-1.6549988,3.2000008-4.4140015,3.2000008c-1.4339981,0-2.538002-0.3309994-2.8689957-0.3309994 c-0.2210007-0.1100006-0.3310013-0.1100006-0.3310013-0.3309994v-0.441c0-0.2210007,0.1100006-0.3309994,0.2210007-0.2210007 c0.8829956,0.2210007,2.0970001,0.441,2.8690033,0.441c1.9859924,0,3.3099976-0.7719994,3.3099976-2.0970001 c0-0.8830013-0.552002-1.5450001-1.9860001-1.9860001c-0.552002-0.1099997-0.7720032-0.2209997-1.6550064-0.441 c-2.0970001-0.552-2.8689957-1.434-2.8689957-2.8689995c0-1.7659998,1.3239975-3.0900002,4.0830002-3.0900002 c1.3239975,0,2.2070007,0.2210007,2.6480026,0.3309994c0.2210007,0,0.2210007,0.1100006,0.2210007,0.3310003v0.441 c0,0.2209997-0.1100006,0.3310003-0.2210007,0.2209997c-0.1100006,0-1.4339981-0.3310003-2.4280014-0.3310003 c-1.7659988,0-3.0899963,0.7720003-3.0899963,2.0970001C82.8689957,13.2410002,83.4209976,13.9029999,84.6349945,14.2340002 L84.6349945,14.2340002z M112,20.8549995h-0.552002c-0.2210007,0-0.3310013,0-0.3310013-0.2210007v-5.5170002 c0-1.6549997-0.3310013-2.5380001-1.1029968-3.3099995c-0.6620026-0.7719994-1.7659988-1.3239994-2.9790039-1.3239994 c-0.3310013,0-0.7719955,0.1099997-1.1029968,0.441c-0.8830032,0.6619997-2.6480026,2.0970001-2.6480026,2.0970001 s0.1100006,0.8830004,0.1100006,1.3240004v6.1789999c0,0.2210007-0.1100006,0.2210007-0.3310013,0.2210007h-0.4410019 c-0.220993,0-0.3309937,0-0.3309937-0.2210007V15.007c0-1.6549997-0.3310013-2.5380001-1.1030045-3.3099995 c-0.8829956-0.8830004-2.0970001-1.2139997-2.8689957-1.2139997c-0.4410019,0-0.7720032,0.1099997-1.1030045,0.441 c-0.7719955,0.6619997-1.7659988,1.434-2.0970001,1.7659998c-0.3310013,0.3310003-0.4410019,0.441-0.4410019,0.993v6.9519997 c0,0.2210007-0.109993,0.2210007-0.3309937,0.2210007h-0.552002c-0.2210007,0-0.3310013,0-0.3310013-0.2210007v-6.8409996 c0-1.1029997,0-1.2139997,0.7720032-1.7659998c0.5519943-0.441,1.4339981-1.1029997,2.0970001-1.6549997 C97.2139969,9.71,97.4349976,9.6000004,98.3180008,9.6000004c0.3309937,0,1.5449982,0,2.9789963,0.7719994 c0.8830032,0.441,1.3239975,1.1029997,1.7659988,1.7659998c0,0,0.9930038-0.8830004,1.9860001-1.6549997 c0.8830032-0.8829994,1.1030045-1.1029997,1.9860001-1.1029997c1.6549988,0,3.090004,0.6619997,3.8619995,1.434 c0.8830032,0.8830004,1.4340057,1.8760004,1.4340057,3.6409998v6.1789989 C112.3320007,20.7450008,112.2210007,20.8549995,112,20.8549995L112,20.8549995z M143.6690063,20.8549995h-0.552002 c-0.2210083,0-0.3310089,0-0.3310089-0.2210007v-5.5170002c0-1.6549997-0.3309937-2.5380001-1.1029968-3.3099995 c-0.6620026-0.6619997-1.7660065-1.2139997-2.9790039-1.2139997c-0.3309937,0-0.6620026,0.1099997-0.9929962,0.3310003 c-0.8829956,0.7720003-1.5449982,1.2139997-2.2070007,1.7659998c-0.3309937,0.3310003-0.4409943,0.441-0.4409943,0.8830004 v6.9519997c0,0.2210007-0.1100006,0.2210007-0.3310089,0.2210007h-0.552002c-0.220993,0-0.3309937,0-0.3309937-0.2210007V5.7379999 c0-0.2209997,0.1100006-0.2209997,0.3309937-0.2209997h0.552002c0.2210083,0,0.3310089,0,0.3310089,0.2209997v5.9590006 c0.4409943-0.3310003,1.1029968-0.8830004,1.7659912-1.434c0.7710114-0.6630001,1.1029968-0.7730007,1.875-0.7730007 c1.6549988,0,3.0900116,0.6619997,3.8619995,1.434C143.5589905,11.8070002,144,12.9099998,144,14.5649996v6.0689993 C143.8899994,20.7450008,143.7799988,20.8549995,143.6690063,20.8549995L143.6690063,20.8549995z M78.3450012,20.7450008 c-0.2210083,0.1100006-0.8830032,0.2210007-1.7660065,0.2210007c-1.2139969,0-2.4279938-0.441-3.0899963-1.1030006 c-0.8829956-0.8829994-1.1029968-1.7660007-1.1029968-3.3099995v-6.0699997h-1.4340057 c-0.2210007,0-0.2210007-0.1099997-0.2210007-0.3310003V9.71c0-0.1099997,0-0.2209997,0.2210007-0.2209997h1.4339981V6.9520001 c0-0.2210002,0.1100006-0.2210002,0.3310013-0.2210002h0.552002c0.220993,0,0.3309937,0,0.3309937,0.2210002v2.5379996h3.8619995 c0.2210083,0,0.2210083,0.1100006,0.2210083,0.2210007v0.441c0,0.1099997,0,0.3310003-0.2210083,0.3310003h-3.8619995v5.8480005 c0,1.434,0.3310089,2.3169994,0.9930038,2.8689995c0.6620026,0.552,1.7659988,0.7719994,3.6409988,0.552 c0.2210007,0,0.2210007,0,0.2210007,0.2210007v0.441C78.5659943,20.5240002,78.5659943,20.6340008,78.3450012,20.7450008 L78.3450012,20.7450008z M67.310997,20.8549995h-0.5519943c-0.2210083,0-0.3310089,0-0.3310089-0.2210007v-5.5170002 c0-1.5450001-0.3309937-2.5380001-1.1029968-3.3099995c-0.7720032-0.7720003-1.8759995-1.2139997-2.9790001-1.2139997 c-0.4410019,0-0.6619987,0.1099997-0.993,0.441c-0.1100006,0.1099997-1.8759995,1.5450001-2.0970001,1.6549997 c-0.4410019,0.3310003-0.5519981,0.552-0.5519981,0.993v6.9519997c0,0.2210007-0.1100006,0.2210007-0.3310013,0.2210007h-0.5519981 c-0.2210007,0-0.3310013,0-0.3310013-0.2210007v-6.7309999c0-1.2139997,0-1.3240004,0.7719994-1.9860001 c0.7719994-0.552,1.6549988-1.434,2.2070007-1.7659998c0.7729988-0.5510006,0.9939995-0.7719994,1.8759995-0.7719994 c1.4340019,0,2.8689995,0.441,3.8620033,1.3239994c0.9929962,0.7720003,1.5449982,1.9860001,1.5449982,3.6409998v6.0689993 C67.5319977,20.7450008,67.4209976,20.8549995,67.310997,20.8549995L67.310997,20.8549995z M119.3939972,20.8549995 c-0.2210007,0.1100006-0.4410019,0.1100006-0.7720032,0.1100006c-0.6619949,0-1.1029968-0.2210007-1.3239975-0.441 c-0.2210007-0.3309994-0.4410019-0.7719994-0.4410019-1.434V9.71c0-0.2209997,0.1100006-0.2209997,0.3310013-0.2209997h0.552002 c0.2210007,0,0.3310013,0,0.3310013,0.2209997v9.0479994c0,0.3309994,0.1100006,0.6620007,0.3310013,0.8829994 c0.3310013,0.2210007,0.7719955,0.1100006,0.9929962,0.1100006s0.2210007,0.1100006,0.2210007,0.3309994v0.441 C119.6139984,20.6340008,119.5039978,20.7450008,119.3939972,20.8549995L119.3939972,20.8549995z M117.5179977,7.724 c-0.6620026,0-1.1029968-0.552-1.1029968-1.1030002c0-0.6620002,0.5519943-1.1030002,1.1029968-1.1030002 c0.6620026,0,1.1029968,0.552,1.1029968,1.1030002S118.0690002,7.724,117.5179977,7.724L117.5179977,7.724z M129.8759918,20.7450008 c0,0-0.6620026,0.2210007-1.7659912,0.2210007c-1.2140045,0-2.4280014-0.441-3.090004-1.1030006 c-0.8830032-0.8829994-1.1030045-1.7660007-1.1030045-3.3099995v-6.0699997h-1.4339905 c-0.2210083,0-0.2210083-0.1099997-0.2210083-0.3310003V9.71c0-0.1099997,0-0.2209997,0.2210083-0.2209997h1.4339981V6.9520001 c0-0.2210002,0.1100006-0.2210002,0.3310013-0.2210002h0.5519943c0.2210007,0,0.3310013,0,0.3310013,0.2210002v2.5379996h3.8619995 c0.220993,0,0.220993,0.1100006,0.220993,0.2210007v0.441c0,0.1099997,0,0.3310003-0.220993,0.3310003h-3.8619995v5.8480005 c0,1.434,0.3310013,2.3169994,0.9929962,2.8689995c0.6620026,0.552,1.7660065,0.7719994,3.6410065,0.552 c0.220993,0,0.220993,0.1100006,0.220993,0.3309994v0.441C130.0970001,20.6340008,130.0970001,20.6340008,129.8759918,20.7450008 L129.8759918,20.7450008z"/>
</svg>