<svg version="1.1" xmlns="http://www.w3.org/2000/svg" xmlns:xlink="http://www.w3.org/1999/xlink" x="0px" y="0px" width="84px" height="84px" viewBox="0 0 84 84" enable-background="new 0 0 84 84" xml:space="preserve"><g><path fill="#FFFFFF" d="M23.8,56c0.3,3.8,4.6,6.6,9.8,6.2c5.2-0.3,9.1-3.6,8.8-7.4s-4.6-6.6-9.8-6.2C27.6,49,23.5,52.2,23.8,56z"/><path fill="#FFFFFF" d="M30.7,23c-3.1,0.8-4.6,5-3.4,9.2c1.1,4.3,4.6,7.1,7.7,6.3s4.6-5,3.5-9.2C37.2,24.9,33.7,22.1,30.7,23z"/><path fill="#FFFFFF" d="M42,0C18.8,0,0,18.8,0,42s18.8,42,42,42s42-18.8,42-42S65.2,0,42,0z M44.4,30.9c0,6.9-6.4,7.7-6.4,10.6	s8.5,5.2,8.5,12.5c0,12-14.8,11.3-14.8,11.3s-12.9,0.4-12.9-9.4c0-9.7,14.6-9.2,15.4-9.2c-0.1-2.2-1.7-1.8-1.7-2.9s0-2.7,0-2.7	s-11.1,1.3-11.1-9.5C21.4,21,34,20.5,34,20.5s11.5,0,12.5,0c0,2-5.7,1.3-5.7,2.2C44,24.4,44.4,26.9,44.4,30.9z M68.7,31.6h-8v8	h-2.8v-8h-8v-2.8h8v-8h2.8v8h8V31.6z"/></g></svg>