<svg version="1.1" xmlns="http://www.w3.org/2000/svg" xmlns:xlink="http://www.w3.org/1999/xlink" x="0px" y="0px" width="64px" height="198px" viewBox="0 0 64 198" enable-background="new 0 0 64 198" xml:space="preserve"><path opacity="0.4" fill="#1E191A" d="M62.3,31.6c0-17-13.8-30.7-30.7-30.7c-17,0-30.7,13.7-30.7,30.7c0,17,13.8,30.7,30.7,30.7 C48.6,62.3,62.3,48.6,62.3,31.6z"/><line fill="none" stroke="#C6BA00" stroke-width="1.8134" stroke-miterlimit="10" x1="32.6" y1="62.6" x2="32.6" y2="194.5"/><path fill="#C6BA00" d="M35.7,194.7c0-1.7-1.4-3-3-3c-1.7,0-3,1.4-3,3c0,1.7,1.4,3,3,3C34.3,197.8,35.7,196.4,35.7,194.7z"/><path fill="none" stroke="#C6BA00" stroke-width="1.8134" stroke-miterlimit="10" d="M62.3,31.6c0-17-13.8-30.7-30.7-30.7 c-17,0-30.7,13.7-30.7,30.7c0,17,13.8,30.7,30.7,30.7C48.6,62.3,62.3,48.6,62.3,31.6z"/></svg>