<svg version="1.1" xmlns="http://www.w3.org/2000/svg" xmlns:xlink="http://www.w3.org/1999/xlink" x="0px" y="0px" width="116px" height="78px" viewBox="0 0 116 78" enable-background="new 0 0 116 78" xml:space="preserve"><path opacity="0.4" fill="#1E191A" d="M83.3,0.9c-10.9,0-20.4,5.7-25.8,14.2C52,6.6,42.5,0.9,31.6,0.9c-17,0-30.7,13.8-30.7,30.7 c0,17,13.8,30.7,30.7,30.7c10.9,0,20.4-5.7,25.8-14.1c5.5,8.5,15,14.1,25.8,14.1c17,0,30.7-13.7,30.7-30.7 C114,14.7,100.3,0.9,83.3,0.9z"/><path fill="none" stroke="#C6BA00" stroke-width="1.8134" stroke-miterlimit="10" d="M83.3,0.9c-10.9,0-20.4,5.7-25.8,14.2 C52,6.6,42.5,0.9,31.6,0.9c-17,0-30.7,13.8-30.7,30.7c0,17,13.8,30.7,30.7,30.7c10.9,0,20.4-5.7,25.8-14.1 c5.5,8.5,15,14.1,25.8,14.1c17,0,30.7-13.7,30.7-30.7C114,14.7,100.3,0.9,83.3,0.9z"/><path fill="#C6BA00" d="M34.1,73.4c0-1.7-1.4-3-3-3c-1.7,0-3,1.4-3,3c0,1.7,1.4,3,3,3C32.8,76.5,34.1,75.1,34.1,73.4z"/><line fill="none" stroke="#C6BA00" stroke-width="1.8134" stroke-miterlimit="10" x1="31.1" y1="61.9" x2="31.1" y2="73.2"/></svg>