<svg version="1.1" xmlns="http://www.w3.org/2000/svg" xmlns:xlink="http://www.w3.org/1999/xlink" x="0px" y="0px" width="118px" height="98px" viewBox="0 0 118 98" enable-background="new 0 0 118 98" xml:space="preserve"><g><path opacity="0.4" fill="#1E191A" d="M62.3,64.9c0-17-13.7-30.7-30.7-30.7c-17,0-30.7,13.8-30.7,30.7c0,17,13.7,30.7,30.7,30.7 C48.6,95.6,62.3,81.9,62.3,64.9z"/><path fill="none" stroke="#C6BA00" stroke-width="1.8134" stroke-miterlimit="10" d="M62.3,64.9c0-17-13.7-30.7-30.7-30.7 c-17,0-30.7,13.8-30.7,30.7c0,17,13.7,30.7,30.7,30.7C48.6,95.6,62.3,81.9,62.3,64.9z"/><path fill="none" stroke="#C6BA00" stroke-width="1.8134" stroke-miterlimit="10" d="M62.3,64.9c0-17-13.7-30.7-30.7-30.7 c-17,0-30.7,13.8-30.7,30.7c0,17,13.7,30.7,30.7,30.7C48.6,95.6,62.3,81.9,62.3,64.9z"/><path fill="#C6BA00" d="M117.1,3c0-1.7-1.4-3-3-3c-1.7,0-3,1.4-3,3c0,1.7,1.4,3,3,3C115.7,6.1,117.1,4.7,117.1,3z"/><line fill="none" stroke="#C6BA00" stroke-width="1.8134" stroke-miterlimit="10" x1="114.6" y1="2.7" x2="55.1" y2="45.4"/></g></svg>